<svg width="90" height="75" viewBox="0 0 90 75" fill="none" xmlns="http://www.w3.org/2000/svg">
<path d="M0 11.25C0 5.0368 6.04416 0 13.5 0H76.5C83.9558 0 90 5.0368 90 11.25V63.75C90 69.9632 83.9558 75 76.5 75H13.5C6.04415 75 0 69.9632 0 63.75V11.25Z" fill="#353238"/>
<path d="M68.4636 31.9079L48.9401 20.1681C47.4069 19.2462 45.5643 18.75 43.6737 18.75H17.1C12.1294 18.75 8.1 22.1079 8.1 26.25V48.75C8.1 52.8921 12.1294 56.25 17.1 56.25H76.7636L70.7273 50.7633H57.9L62.4273 45.0658H76.7636L82.8 39.8026H61.1231C59.5855 39.8026 58.1543 40.4569 57.328 41.5375L52.4356 47.9362C51.6093 49.0168 50.1782 49.6711 48.6405 49.6711H19.3909C16.9056 49.6711 14.8909 47.9921 14.8909 45.9211V29.0789C14.8909 27.0079 16.9056 25.3289 19.3909 25.3289H45.1674C46.0882 25.3289 46.9867 25.5643 47.7419 26.0033L57.9 31.9079H68.4636Z" fill="#F7F5F6"/>
</svg>
