<svg width="31" height="42" viewBox="0 0 31 42" fill="none" xmlns="http://www.w3.org/2000/svg">
<path d="M21.5049 2.00781C21.8474 5.9237 24.1236 11.3641 30.1475 10.9756V15.3076C27.7208 15.9586 24.2313 15.5892 21.5049 14.3369V32.9258C21.5049 40.7241 13.7063 44.7684 5.61914 39.8584C-2.46795 34.9484 -1.6014 23.1062 6.77441 21.373L11.6846 20.5068V25.1279C8.89265 25.513 5.0415 26.572 5.33008 30.6152C5.45454 32.3576 6.30896 33.714 7.47559 34.6729C10.124 36.8496 15.1863 36.5407 16.0176 33.2148C16.176 32.5809 16.2616 31.9795 16.3057 31.4268V3.75195C16.2676 2.4176 16.3031 1.1731 16.3057 0.114258V0H21.5049V2.00781Z" fill="#353238"/>
</svg>
